<?xml version="1.0" encoding="UTF-8" standalone="no"?>
<!-- Created with Inkscape (http://www.inkscape.org/) -->

<svg
   xmlns:dc="http://purl.org/dc/elements/1.1/"
   xmlns:cc="http://creativecommons.org/ns#"
   xmlns:rdf="http://www.w3.org/1999/02/22-rdf-syntax-ns#"
   xmlns:svg="http://www.w3.org/2000/svg"
   xmlns="http://www.w3.org/2000/svg"
   xmlns:sodipodi="http://sodipodi.sourceforge.net/DTD/sodipodi-0.dtd"
   xmlns:inkscape="http://www.inkscape.org/namespaces/inkscape"
   id="svg3336"
   version="1.1"
   inkscape:version="0.91 r13725"
   viewBox="0 0 640 640"
   sodipodi:docname="prescription.svg" fill="#5FA2DD">
  <metadata
     id="metadata3342">
    <rdf:RDF>
      <cc:Work
         rdf:about="">
        <dc:format>image/svg+xml</dc:format>
        <dc:type
           rdf:resource="http://purl.org/dc/dcmitype/StillImage" />
        <dc:title></dc:title>
      </cc:Work>
    </rdf:RDF>
  </metadata>
  <defs
     id="defs3340" />
  <sodipodi:namedview
     pagecolor="#ffffff"
     bordercolor="#666666"
     borderopacity="1"
     objecttolerance="10"
     gridtolerance="10"
     guidetolerance="10"
     inkscape:pageopacity="0"
     inkscape:pageshadow="2"
     inkscape:window-width="1920"
     inkscape:window-height="1061"
     id="namedview3338"
     showgrid="true"
     showguides="true"
     inkscape:guide-bbox="true"
     inkscape:zoom="0.97890095"
     inkscape:cx="237.96864"
     inkscape:cy="357.09584"
     inkscape:window-x="-4"
     inkscape:window-y="-4"
     inkscape:window-maximized="1"
     inkscape:current-layer="svg3336">
    <inkscape:grid
       type="xygrid"
       id="grid4213"
       spacingx="10"
       spacingy="10" />
    <sodipodi:guide
       position="30,320"
       orientation="0,1"
       id="guide4215" />
    <sodipodi:guide
       position="320,470"
       orientation="1,0"
       id="guide4217" />
  </sodipodi:namedview>
  <g
     id="g4204"
     transform="translate(2.1887434,0)">
    <path
       inkscape:connector-curvature="0"
       id="path3348"
       d="m 125.45658,54.062781 c -0.0314,-0.761475 0.13936,-1.188111 0.37939,-0.948081 0.24003,0.24003 0.26569,0.863055 0.057,1.384499 -0.23059,0.576241 -0.40175,0.405076 -0.43641,-0.436418 z"
       style="fill-opacity:1" />
    <path
       inkscape:connector-curvature="0"
       id="path4156"
       d="m 100.89917,629.07756 c -5.865634,-2.09609 -10.94132,-6.66098 -13.910798,-12.51089 -1.077359,-2.12241 -1.173474,-26.39671 -1.173474,-296.36712 l 0,-294.055375 1.741223,-3.436138 C 89.404443,19.06055 94.397244,13.993693 97.831614,12.280132 103.44322,9.4802478 99.547074,9.5249754 319.49436,9.7354575 l 213.09255,0.2039224 3.48858,1.6100671 c 5.14586,2.374946 8.95628,5.684189 11.34938,9.856608 l 2.12365,3.702625 0.007,158.37472 0.007,158.37472 -19.86456,0 -19.86456,0 0,-146.27674 0,-146.276734 -191.93428,0.181927 -191.93427,0.181927 -0.54571,2.528216 c -0.75947,3.518547 -0.3799,536.048974 0.38319,537.607224 0.58536,1.19533 6.37199,1.26411 106.36569,1.26411 l 105.74664,0 0,19.50338 0,19.50339 -117.2009,-0.0317 c -93.93706,-0.0254 -117.71962,-0.21707 -119.81415,-0.96555 z"
       style="fill-opacity:1;stroke:#333333;stroke-width:2.12199998;stroke-miterlimit:4;stroke-dasharray:none;stroke-opacity:1" />
    <path
       inkscape:connector-curvature="0"
       id="path4158"
       d="m 170.3461,152.21967 c -2.18485,-1.75695 -5.19129,-5.00264 -6.68096,-7.21266 -2.5509,-3.7844 -2.70847,-4.34849 -2.70804,-9.69469 4.4e-4,-5.59502 0.0473,-5.73836 3.26193,-9.98458 1.79382,-2.36943 4.80005,-5.47861 6.68051,-6.90929 l 3.41903,-2.60122 143.36992,-0.0136 c 135.15102,-0.0129 143.47733,0.0612 145.24361,1.29211 3.44533,2.40097 6.23808,5.14811 8.87414,8.72915 2.50192,3.39881 2.61409,3.80895 2.61409,9.55712 0,4.92415 -0.28081,6.43143 -1.55913,8.3684 -2.41565,3.66034 -5.7347,7.16479 -9.04387,9.54909 l -3.0192,2.17537 -143.23979,-0.0304 -143.23977,-0.0304 -3.97247,-3.19446 z"
       style="fill-opacity:1;stroke:#333333;stroke-width:1.96817136;stroke-miterlimit:4;stroke-dasharray:none;stroke-opacity:1" />
    <path
       inkscape:connector-curvature="0"
       id="path4160"
       d="m 172.50523,279.14241 c -2.96354,-2.12389 -7.20582,-6.6699 -9.42981,-10.10493 -1.85285,-2.86178 -2.09817,-3.9066 -2.09398,-8.91781 0.006,-7.2027 2.0461,-10.78342 9.98446,-17.52477 l 3.85413,-3.27296 39.54859,0 39.5486,0 0.50332,1.74478 c 0.27683,0.95964 0.68219,10.20702 0.90083,20.54973 l 0.39753,18.80493 -40.71454,0 c -36.62623,0 -40.89373,-0.12842 -42.49913,-1.27897 z"
       style="fill-opacity:1;stroke:#333333;stroke-width:2.17082977;stroke-miterlimit:4;stroke-dasharray:none;stroke-opacity:1" />
    <path
       inkscape:connector-curvature="0"
       id="path4162"
       d="m 171.62434,397.81769 c -4.61189,-2.88475 -7.98915,-7.4138 -9.61771,-12.89773 -1.37554,-4.63195 -1.40886,-4.27356 0.97422,-10.47804 1.7992,-4.6843 2.52507,-5.67745 6.10902,-8.35852 l 4.06721,-3.04258 22.90269,-0.47849 c 12.59648,-0.26316 30.97609,-0.47848 40.84358,-0.47848 l 17.94089,0 0,19.14221 0,19.14221 -39.57113,0 -39.57113,0 -4.07764,-2.55058 z"
       style="fill-opacity:1;stroke:#333333;stroke-width:2.01399994;stroke-miterlimit:4;stroke-dasharray:none;stroke-opacity:1" />
    <path
       inkscape:connector-curvature="0"
       id="path4164"
       d="m 169.98316,519.37488 c -4.5741,-3.44047 -5.22618,-4.26109 -7.03125,-8.84859 -1.49588,-3.80173 -1.88502,-5.77341 -1.5682,-7.94583 0.95106,-6.52144 4.98173,-12.47201 10.72977,-15.84059 l 3.16861,-1.85692 115.60883,0 115.60884,0 -2.21969,3.79232 c -1.22083,2.08578 -6.46118,10.69978 -11.64523,19.14221 l -9.42554,15.34989 -104.09223,-1.6e-4 -104.09224,-1.6e-4 -5.04167,-3.79217 z"
       style="fill-opacity:1;stroke:#333333;stroke-width:2.05500007;stroke-miterlimit:4;stroke-dasharray:none;stroke-opacity:1" />
    <path
       inkscape:connector-curvature="0"
       id="path4166"
       d="m 363.0224,611.1132 c -2.47874,-3.79173 -2.33168,-4.59201 2.39785,-13.04934 5.3278,-9.52714 53.16456,-88.58636 61.44426,-101.54816 5.47528,-8.57151 5.68581,-9.05689 4.92639,-11.35795 -1.4611,-4.42717 -53.353,-93.84788 -63.87588,-110.07164 -5.13823,-7.92191 -10.48994,-13.07446 -15.37745,-14.80517 -3.36829,-1.19274 -17.84717,-2.39461 -29.97324,-2.48804 l -5.59819,-0.0431 0,47.99483 c 0,47.55994 -0.0138,48.01828 -1.52706,50.583 -0.83988,1.42349 -2.11874,2.90482 -2.8419,3.29185 -0.73625,0.39403 -8.09044,0.70151 -16.71223,0.69875 l -15.39737,-0.005 -1.62528,-2.38739 -1.62528,-2.3874 0,-117.37567 0,-117.37568 2.49413,-2.41741 2.49413,-2.4174 55.83544,0.4174 55.83544,0.41741 6.13995,2.27647 c 21.45164,7.95348 32.78363,20.50823 39.68939,43.97199 2.15677,7.32808 2.20678,7.84634 2.20678,22.8694 0,15.00369 -0.0501,15.52415 -2.09134,21.75707 -6.64442,20.28813 -15.63479,31.29711 -33.48858,41.00779 -4.52765,2.46259 -4.84722,2.79505 -4.4245,4.60301 0.60232,2.57608 4.11786,8.99614 17.28458,31.56495 21.20936,36.35455 35.60957,59.59009 36.93225,59.59228 1.08957,0.001 10.85096,-14.77076 28.38895,-42.96293 7.6564,-12.30758 15.51565,-24.74099 17.46499,-27.6298 l 3.54426,-5.25237 16.82724,0 c 16.74204,0 16.83534,0.009 18.42646,1.70229 0.87957,0.93626 1.78941,2.87431 2.02187,4.30679 0.39444,2.43064 -1.014,4.95682 -21.10072,37.84624 -30.57029,50.05489 -40.92516,67.42595 -41.7037,69.96103 -0.55609,1.8107 -0.34397,2.87641 1.16537,5.85495 3.09336,6.10445 18.2599,32.50329 43.27318,75.32116 31.01732,53.09565 30.91526,49.16104 1.27522,49.16104 l -19.27625,0 -7.61365,-12.82167 c -4.18751,-7.05192 -15.17017,-25.98645 -24.40591,-42.07675 -9.23575,-16.09029 -17.1807,-29.67334 -17.65545,-30.18455 -0.47474,-0.51121 -1.41343,-0.71833 -2.08595,-0.46026 -1.34645,0.51668 -10.41327,14.90455 -26.82232,42.56355 -15.88509,26.77578 -25.50127,42.03989 -26.79804,42.53751 -0.63376,0.24319 -9.21473,0.44217 -19.06882,0.44217 -17.78374,0 -17.92441,-0.0121 -18.97902,-1.62528 z m 18.9395,-295.31094 c 5.34337,-1.75414 7.32897,-2.89783 11.10781,-6.39807 5.21936,-4.83454 7.79715,-10.10112 9.41844,-19.24247 1.39672,-7.87518 -0.91853,-17.4749 -5.98873,-24.83104 -2.25772,-3.27562 -3.41825,-4.15122 -8.74322,-6.59665 l -6.13995,-2.81971 -32.32506,-0.008 -32.32505,-0.008 0,30.69978 0,30.69977 30.2193,0 c 28.61652,0 30.461,-0.0793 34.77646,-1.49604 z"
       style="fill-opacity:1;stroke:#f65314;stroke-width:1.48442447;stroke-miterlimit:4;stroke-dasharray:none;stroke-opacity:1" />
  </g>
</svg>
