<?xml version="1.0" encoding="iso-8859-1"?>
<!-- Generator: Adobe Illustrator 19.0.0, SVG Export Plug-In . SVG Version: 6.00 Build 0)  -->
<svg xmlns="http://www.w3.org/2000/svg" xmlns:xlink="http://www.w3.org/1999/xlink" version="1.1" id="Layer_1" x="0px" y="0px" viewBox="0 0 512 512" style="enable-background:new 0 0 512 512;" xml:space="preserve" width="512px" height="512px">
<g>
	<g>
		<path d="M369.881,376.471h51.766V240.941c0-45.173-18.09-86.117-47.413-116l32.354-64.706C406.588,60.235,361.412,0,256,0    S105.412,60.235,105.412,60.235l32.354,64.706c-29.323,29.883-47.413,70.826-47.413,116v135.529h51.766    c8.132,8.448,17.193,15.992,27.014,22.475C123.147,415.91,90.353,460.122,90.353,512h331.294c0-51.878-32.794-96.09-78.78-113.054    C352.688,392.463,361.749,384.919,369.881,376.471z M210.824,57.224h27.106V30.118h36.141v27.106h27.106v36.141h-27.106v27.106    h-36.141V93.365h-27.106V57.224z M256,448c-21.117,0-39.325-12.424-47.735-30.357c15.068,4.783,31.104,7.371,47.735,7.371    s32.667-2.589,47.735-7.371C295.325,435.576,277.117,448,256,448z M256,379.836c-62.276,0-112.941-50.665-112.941-112.941    c0-1.122,0.017-2.244,0.05-3.366h225.783c0.033,1.122,0.05,2.245,0.05,3.366C368.941,329.171,318.276,379.836,256,379.836z" fill="#5fa2dd"/>
	</g>
</g>
<g>
</g>
<g>
</g>
<g>
</g>
<g>
</g>
<g>
</g>
<g>
</g>
<g>
</g>
<g>
</g>
<g>
</g>
<g>
</g>
<g>
</g>
<g>
</g>
<g>
</g>
<g>
</g>
<g>
</g>
</svg>
