<?xml version="1.0" encoding="iso-8859-1"?>
<!-- Generator: Adobe Illustrator 19.0.0, SVG Export Plug-In . SVG Version: 6.00 Build 0)  -->
<svg version="1.1" id="Layer_1" xmlns="http://www.w3.org/2000/svg" xmlns:xlink="http://www.w3.org/1999/xlink" x="0px" y="0px"
	 viewBox="0 0 512 512"  xml:space="preserve" fill="#5FA2DD">
<g>
	<g>
		<path d="M408.61,429.884h-15.966V407.29c0-9.228-7.481-16.709-16.709-16.709h-13.54L304.47,193.784h10.198
			c9.228,0,16.709-7.481,16.709-16.709c0-9.228-7.481-16.709-16.709-16.709h-2.035l35.309-50.255
			c3.585-5.102,4.03-11.775,1.155-17.31c-2.875-5.533-8.592-9.005-14.828-9.005h-20.011c-0.654-24.597-16.602-45.441-38.673-53.338
			c1.242-2.721,1.953-5.736,1.953-8.923C277.536,9.642,267.894,0,256,0s-21.536,9.642-21.536,21.536
			c0,3.187,0.711,6.201,1.953,8.923c-22.07,7.897-38.019,28.741-38.673,53.338h-20.011c-6.295,0-12.055,3.538-14.902,9.151
			c-2.847,5.614-2.298,12.352,1.421,17.43l36.607,49.989h-3.526c-9.228,0-16.709,7.481-16.709,16.709
			c0,9.228,7.481,16.709,16.709,16.709h12.239l-59.511,196.796h-13.997c-9.228,0-16.709,7.481-16.709,16.709v22.594H103.39
			c-9.228,0-16.709,7.481-16.709,16.709v48.698c0,9.228,7.481,16.709,16.709,16.709H408.61c9.228,0,16.709-7.481,16.709-16.709
			v-48.698C425.319,437.365,417.838,429.884,408.61,429.884z"/>
	</g>
</g>
<g>
</g>
<g>
</g>
<g>
</g>
<g>
</g>
<g>
</g>
<g>
</g>
<g>
</g>
<g>
</g>
<g>
</g>
<g>
</g>
<g>
</g>
<g>
</g>
<g>
</g>
<g>
</g>
<g>
</g>
</svg>
