<?xml version="1.0" encoding="iso-8859-1"?>
<!-- Generator: Adobe Illustrator 18.0.0, SVG Export Plug-In . SVG Version: 6.00 Build 0)  -->
<!DOCTYPE svg PUBLIC "-//W3C//DTD SVG 1.1//EN" "http://www.w3.org/Graphics/SVG/1.1/DTD/svg11.dtd">
<svg version="1.1" id="Capa_1" xmlns="http://www.w3.org/2000/svg" xmlns:xlink="http://www.w3.org/1999/xlink" x="0px" y="0px"
	 viewBox="0 0 460.305 460.305" xml:space="preserve" fill="#5FA2DD">
<g id="XMLID_12_">
	<path id="XMLID_796_" d="M168.824,263.909l-27.378-2.722c-5.34-0.582-10.575,0.388-15.216,2.674l5.072-13.992
		c1.798-4.961-0.77-10.455-5.734-12.254c-4.966-1.801-10.453,0.765-12.254,5.734l-2.811,7.756
		c-10.132,7.53-17.145,19.098-18.61,32.533c-0.601,5.508-0.21,10.898,1.019,15.998l-7.544,20.813
		c-4.914,13.559,2.118,28.59,15.677,33.504c13.556,4.915,28.589-2.117,33.504-15.677c1.798-4.959-0.76-10.451-5.734-12.254
		c-5.014-1.82-10.481,0.84-12.254,5.734c-1.32,3.641-5.355,5.527-8.997,4.21c-3.641-1.32-5.529-5.356-4.21-8.997
		c1.642-4.53,0.116-0.32,9.787-27c3.88,8.702,12.143,15.17,22.297,16.278l27.504,2.734c3.618,0.359,6.846-2.263,7.239-5.872
		l4.571-41.89C175.153,267.557,172.487,264.273,168.824,263.909z"/>
	<circle id="XMLID_797_" cx="313.225" cy="39.251" r="39.241"/>
	<path id="XMLID_798_" d="M363.147,190.97l-59.561-15.309l-22.226-63.859l32.2,48.08l11.65-30.511
		c5.222-13.677-1.632-28.998-15.309-34.22l-44.162-16.862c-13.588-5.187-28.97,1.559-34.22,15.309
		c-10.033,26.278-38.545,100.95-48.298,126.492c-2.426,4.953-2.949,10.835-0.978,16.45l11.662,33.221l-4.702,45.423
		c-0.019,0.176-0.047,0.349-0.07,0.525l35.098,3.829c15.65,1.709,27.618-13.538,22.443-28.275l-17.737-50.525l41.615,65.36
		l-11.374,32.034l40.209,14.277l14.858-41.848c2.199-6.193,1.421-13.053-2.108-18.596L281.5,243.845l6.789-17.78l-7.036-1.808
		c-15.323-3.939-24.178-17.407-25.091-26.128l-7.569-72.294l24.543,70.517c1.955,5.615,6.589,9.891,12.365,11.375l68.794,17.682
		c9.477,2.437,19.193-3.255,21.645-12.793C378.389,203.089,372.642,193.411,363.147,190.97z"/>
	<path id="XMLID_799_" d="M310.258,410.419c-8.051-3.74-13.123,0.599-14.621,4.904c-1.736,4.99,0.903,10.443,5.893,12.178
		c5.884,2.046,6.363,10.242,0.752,12.956c-3.493,1.691-3.658,0.906-27.625-7.429c5.162-3.556,9.294-8.709,11.552-15.067l13.19-37.15
		c1.224-3.447-0.578-7.233-4.025-8.457l-45.656-16.211c-0.733-0.26-1.48-0.384-2.216-0.384c-2.725,0-5.278,1.695-6.242,4.409
		l-13.191,37.15c-2.305,6.493-2.303,13.244-0.424,19.36l-8.188-2.848c-4.805-1.672-10.022,0.716-11.955,5.343
		c-2.185,5.232,0.597,10.963,5.67,12.728c16.04,5.578,61.021,21.221,77.459,26.938c6.596,2.295,13.696,1.883,19.986-1.16
		C330.454,448.079,330.14,419.652,310.258,410.419z"/>
</g>
<g>
</g>
<g>
</g>
<g>
</g>
<g>
</g>
<g>
</g>
<g>
</g>
<g>
</g>
<g>
</g>
<g>
</g>
<g>
</g>
<g>
</g>
<g>
</g>
<g>
</g>
<g>
</g>
<g>
</g>
</svg>
