<?xml version="1.0" encoding="iso-8859-1"?>
<!-- Generator: Adobe Illustrator 18.0.0, SVG Export Plug-In . SVG Version: 6.00 Build 0)  -->
<!DOCTYPE svg PUBLIC "-//W3C//DTD SVG 1.1//EN" "http://www.w3.org/Graphics/SVG/1.1/DTD/svg11.dtd">
<svg version="1.1" id="Capa_1" xmlns="http://www.w3.org/2000/svg" xmlns:xlink="http://www.w3.org/1999/xlink" x="0px" y="0px"
	 viewBox="0 0 459.638 459.638" style="enable-background:new 0 0 459.638 459.638;" xml:space="preserve" fill="#5FA2DD">
<g id="XMLID_238_">
	<path id="XMLID_239_" d="M419.498,263.189h1.707c5.751,0,10.414-4.662,10.414-10.414c0-5.752-4.663-10.414-10.414-10.414h-14.232
		v-70.883c0-5.752-4.663-10.414-10.414-10.414s-10.414,4.662-10.414,10.414v4.927h-25.688c-3.574,0-6.897,1.832-8.805,4.853
		l-8.331,13.191c-3.071,4.863-1.619,11.295,3.244,14.366c1.726,1.09,3.65,1.61,5.551,1.61c3.455,0,6.834-1.718,8.815-4.855
		l5.266-8.338h19.948v45.128H252.697c-5.751,0-10.414,4.662-10.414,10.414c0,5.752,4.663,10.414,10.414,10.414h1.707
		c5,34.84,34.702,62.358,72.133,66.718v33.307c0,20.645,16.796,37.441,37.441,37.441c20.644,0,37.44-16.796,37.44-37.441
		c0-0.793,0.646-1.438,1.439-1.438h13.141c5.751,0,10.414-4.662,10.414-10.414c0-5.752-4.663-10.414-10.414-10.414h-13.141
		c-12.278,0-22.267,9.988-22.267,22.266c0,9.16-7.452,16.613-16.612,16.613s-16.613-7.453-16.613-16.613v-33.307
		C384.796,325.547,414.498,298.029,419.498,263.189z"/>
	<circle id="XMLID_1603_" cx="140.054" cy="39.828" r="39.818"/>
	<path id="XMLID_1611_" d="M249.632,207.157c0.729-10.593-7.265-19.758-17.847-20.487c-7.314-0.504-59.114-4.071-66.3-4.566
		l-36.164-63.492l44.453,45.576l59.279,4.083c10.034,0.691,19.199,5.249,25.806,12.833c0.822,0.943,1.591,1.919,2.308,2.925
		c7.863-1.355,14.361-7.551,15.704-15.869c1.691-10.475-5.43-20.338-15.905-22.029l-70-11.303l-24.171-12.216
		c0.281-11.772-7.244-22.765-19.059-26.36l-45.89-13.964c-14.212-4.325-29.239,3.691-33.564,17.903l-20.311,66.748l0,0
		c-1.395,4.584-12.991,43.638-17.727,59.594c-1.323,4.456-2.027,9.167-2.047,13.815c-0.065,14.971-0.179,60.575-0.176,196.237
		c0,12.733,10.322,23.055,23.054,23.055s23.054-10.322,23.054-23.055V251.056l7.844,2.514v183.014
		c0,12.733,10.322,23.055,23.054,23.055s23.054-10.322,23.054-23.055v-179.99l6.583-22.925
		c-8.976-4.774-15.164-12.991-16.776-18.808l-8.061-29.1l-12.606-45.505l38.441,69.681c3.182,5.586,8.949,9.215,15.374,9.658
		l78.108,5.41h0.001C239.736,225.736,248.903,217.737,249.632,207.157z"/>
</g>
<g>
</g>
<g>
</g>
<g>
</g>
<g>
</g>
<g>
</g>
<g>
</g>
<g>
</g>
<g>
</g>
<g>
</g>
<g>
</g>
<g>
</g>
<g>
</g>
<g>
</g>
<g>
</g>
<g>
</g>
</svg>
