<?xml version="1.0" encoding="iso-8859-1"?>
<!-- Generator: Adobe Illustrator 18.0.0, SVG Export Plug-In . SVG Version: 6.00 Build 0)  -->
<!DOCTYPE svg PUBLIC "-//W3C//DTD SVG 1.1//EN" "http://www.w3.org/Graphics/SVG/1.1/DTD/svg11.dtd">
<svg version="1.1" id="Capa_1" xmlns="http://www.w3.org/2000/svg" xmlns:xlink="http://www.w3.org/1999/xlink" x="0px" y="0px"
	 viewBox="0 0 60 60" style="enable-background:new 0 0 60 60;" xml:space="preserve" fill="#5FA2DD">
<g>
	<path d="M14,40.999h33c0.008,0,0.015,0.001,0.02,0c0.553,0,1-0.448,1-1c0-0.3-0.132-0.569-0.341-0.752L35.781,25.375
		C35.591,25.138,35.304,25,35,25v-6h1c0.008,0.001,0.016,0,0.02,0c0.553,0,1-0.448,1-1c0-0.229-0.076-0.439-0.205-0.608l-3.92-7.839
		C32.725,9.214,32.379,9,32,9h-1V5h2c0.553,0,1-0.448,1-1s-0.447-1-1-1h-2V1c0-0.552-0.447-1-1-1s-1,0.448-1,1v2h-2
		c-0.553,0-1,0.448-1,1s0.447,1,1,1h2v4h-1c-0.379,0-0.725,0.214-0.895,0.553l-4,8c-0.155,0.31-0.139,0.678,0.044,0.973
		C23.332,18.82,23.653,19,24,19h1v6c-0.318,0-0.618,0.152-0.807,0.409l-11,13.999c-0.223,0.304-0.256,0.707-0.085,1.043
		C13.278,40.788,13.623,40.999,14,40.999z M34,36c0,0.552-0.447,1-1,1h-6c-0.553,0-1-0.448-1-1v-5c0-0.552,0.447-1,1-1h6
		c0.553,0,1,0.448,1,1V36z M27,19h6v6h-6V19z"/>
	<path d="M52,58h-7V43c0-0.552-0.447-1-1-1H17c-0.553,0-1,0.448-1,1v15H8c-0.553,0-1,0.448-1,1s0.447,1,1,1h9h9h9h9h8
		c0.553,0,1-0.448,1-1S52.553,58,52,58z M27,51.5c0-1.93,1.57-3.5,3.5-3.5s3.5,1.57,3.5,3.5V58h-7V51.5z"/>
</g>
<g>
</g>
<g>
</g>
<g>
</g>
<g>
</g>
<g>
</g>
<g>
</g>
<g>
</g>
<g>
</g>
<g>
</g>
<g>
</g>
<g>
</g>
<g>
</g>
<g>
</g>
<g>
</g>
<g>
</g>
</svg>
