<?xml version="1.0" encoding="iso-8859-1"?>
<!-- Generator: Adobe Illustrator 17.1.0, SVG Export Plug-In . SVG Version: 6.00 Build 0)  -->
<!DOCTYPE svg PUBLIC "-//W3C//DTD SVG 1.1//EN" "http://www.w3.org/Graphics/SVG/1.1/DTD/svg11.dtd">
<svg version="1.1" id="Capa_1" xmlns="http://www.w3.org/2000/svg" xmlns:xlink="http://www.w3.org/1999/xlink" x="0px" y="0px"
	 viewBox="0 0 219.917 219.917" style="enable-background:new 0 0 219.917 219.917;" xml:space="preserve" fill="#5FA2DD">
<path d="M193.694,204.917h-25.789v-53.022c0-2.226-0.988-4.337-2.698-5.762l-18.922-15.768v-25.829c0-0.993-0.197-1.976-0.58-2.892
	l-28.247-67.591v-6.506h3.979c4.143,0,7.5-3.358,7.5-7.5s-3.357-7.5-7.5-7.5h-3.979V7.5c0-4.142-3.357-7.5-7.5-7.5
	s-7.5,3.358-7.5,7.5v5.047h-3.979c-4.143,0-7.5,3.358-7.5,7.5s3.357,7.5,7.5,7.5h3.979v6.506l-28.247,67.591
	c-0.383,0.916-0.58,1.899-0.58,2.892v25.829l-18.922,15.768c-1.71,1.425-2.698,3.536-2.698,5.762v53.022H26.222
	c-4.143,0-7.5,3.358-7.5,7.5s3.357,7.5,7.5,7.5H59.51h32.044h36.807h32.044h33.289c4.143,0,7.5-3.358,7.5-7.5
	S197.837,204.917,193.694,204.917z M99.054,173.887c0-5.721,4.654-10.375,10.375-10.375h1.057c5.721,0,10.375,4.654,10.375,10.375
	v31.029H99.054V173.887z M109.958,91.188c6.65,0,12.061,5.41,12.061,12.06s-5.41,12.06-12.061,12.06
	c-6.649,0-12.06-5.41-12.06-12.06S103.308,91.188,109.958,91.188z"/>
<g>
</g>
<g>
</g>
<g>
</g>
<g>
</g>
<g>
</g>
<g>
</g>
<g>
</g>
<g>
</g>
<g>
</g>
<g>
</g>
<g>
</g>
<g>
</g>
<g>
</g>
<g>
</g>
<g>
</g>
</svg>
