<?xml version="1.0" encoding="iso-8859-1"?>
<!-- Generator: Adobe Illustrator 19.0.0, SVG Export Plug-In . SVG Version: 6.00 Build 0)  -->
<svg version="1.1" id="Layer_1" xmlns="http://www.w3.org/2000/svg" xmlns:xlink="http://www.w3.org/1999/xlink" x="0px" y="0px"
	 viewBox="0 0 512 512"  xml:space="preserve" fill="#5FA2DD">
<g>
	<g>
		<path d="M328.639,85.378c0.625-3.85,0.962-7.797,0.962-11.821C329.6,32.998,296.603,0,256.044,0
			c-40.559,0-73.557,32.998-73.557,73.557c0,4.018,0.337,7.956,0.959,11.801c-32.993,7.248-57.766,36.694-57.766,71.833
			c0,12.322,3.061,23.938,8.439,34.151c7.757,0,238.807,0,243.763,0c5.378-10.213,8.439-21.829,8.439-34.151
			C386.319,122.082,361.589,92.658,328.639,85.378z M199.236,144.069c-7.235,0-13.121,5.887-13.121,13.121
			c0,9.299-7.539,16.838-16.838,16.838c-9.191,0-16.838-7.467-16.838-16.838c0-23.58,17.534-43.132,40.246-46.329
			c5.495,9.297,12.967,17.286,21.847,23.379C211.871,140.036,206.031,144.069,199.236,144.069z M244.606,73.557
			c0,13.254-14.638,21.289-25.809,14.231c-4.721-2.983-7.867-8.234-7.867-14.231c-0.001-24.875,20.238-45.113,45.113-45.113
			c5.998,0,11.248,3.145,14.23,7.866c7.049,11.157-0.963,25.81-14.23,25.81C249.737,62.119,244.606,67.25,244.606,73.557z
			 M312.763,142.713c-7.982,0-14.477,6.495-14.477,14.477c0,9.299-7.539,16.838-16.838,16.838c-9.172,0-16.838-7.439-16.838-16.838
			c0-26.328,21.418-48.153,48.153-48.153c7.238,0,13.754,4.689,16.011,11.638C332.32,131.6,324.144,142.713,312.763,142.713z"/>
	</g>
</g>
<g>
	<g>
		<path d="M346.433,220.562H158.128c-11.426,0-19.905,11.418-15.816,22.614l94.152,257.762C238.89,507.581,245.208,512,252.28,512
			c7.072,0,13.389-4.419,15.816-11.061l94.153-257.762C366.337,231.982,357.854,220.562,346.433,220.562z"/>
	</g>
</g>
<g>
</g>
<g>
</g>
<g>
</g>
<g>
</g>
<g>
</g>
<g>
</g>
<g>
</g>
<g>
</g>
<g>
</g>
<g>
</g>
<g>
</g>
<g>
</g>
<g>
</g>
<g>
</g>
<g>
</g>
</svg>
