<?xml version="1.0" encoding="iso-8859-1"?>
<!-- Generator: Adobe Illustrator 19.0.0, SVG Export Plug-In . SVG Version: 6.00 Build 0)  -->
<svg version="1.1" id="Layer_1" xmlns="http://www.w3.org/2000/svg" xmlns:xlink="http://www.w3.org/1999/xlink" x="0px" y="0px"
	 viewBox="0 0 511.988 511.988" style="enable-background:new 0 0 511.988 511.988;" xml:space="preserve" fill="#5FA2DD">
<g>
	<g>
		<path d="M223.463,188.18c-4.478-9.421-15.748-13.318-25.033-8.903l-58.695,27.899l-61.266-36.773l61.287,17.977l-23.814-34.663
			c-8.768-12.747-26.209-15.972-38.955-7.204l-41.158,28.311c-12.747,8.768-15.972,26.209-7.204,38.955l1.5,2.18h43.59L61.38,203.97
			l67.654,40.607c5.108,3.064,10.848,3.614,17.735,0.86l67.793-32.224C223.929,208.761,227.918,197.551,223.463,188.18z"/>
	</g>
</g>
<g>
	<g>
		<circle cx="41.464" cy="100.101" r="41.464"/>
	</g>
</g>
<g>
	<g>
		<path d="M478.652,353.714c19.351-32.9,30.562-68.836,33.324-106.814c0.097-1.338-0.374-2.673-1.292-3.662
			c-0.922-0.991-2.216-1.561-3.549-1.561h-28.17c0-22.379,0-36.416,0-58.473c0-26.626-21.662-48.288-48.288-48.288
			c-27.077,0-48.288,20.616-48.288,46.934c0,7.476,6.06,13.536,13.536,13.536s13.536-6.06,13.536-13.536
			c0-11.324,9.121-19.864,21.216-19.864c11.699,0,21.216,9.518,21.216,21.216c0,22.045,0,36.124,0,58.473H196.689l-42.179,20.051
			c-15.552,7.392-31.778,1.878-38.048-4.215l-16.288-15.833H9.491c-1.344,0-2.64,0.565-3.554,1.55
			c-0.914,0.984-1.383,2.323-1.285,3.672c2.76,37.977,13.972,73.914,33.324,106.814c10.144,17.246,23.364,32.148,38.709,44.207
			c-7.59,8.472-12.553,14.01-20.343,22.706c-7.234,8.073-6.552,20.481,1.521,27.714c8.073,7.234,20.482,6.552,27.714-1.521
			c9.277-10.355,3.236-3.611,25.357-28.302c20.003,8.852,41.885,13.665,64.35,13.665h166.059c22.464,0,44.348-4.812,64.35-13.665
			c22.216,24.796,15.938,17.789,25.357,28.302c7.232,8.072,19.641,8.756,27.714,1.521c8.073-7.233,8.755-19.642,1.521-27.714
			c-3.24-3.616-2.716-3.032-20.343-22.706C455.288,385.862,468.508,370.96,478.652,353.714z"/>
	</g>
</g>
<g>
</g>
<g>
</g>
<g>
</g>
<g>
</g>
<g>
</g>
<g>
</g>
<g>
</g>
<g>
</g>
<g>
</g>
<g>
</g>
<g>
</g>
<g>
</g>
<g>
</g>
<g>
</g>
<g>
</g>
</svg>
