<?xml version="1.0" encoding="iso-8859-1"?>
<svg version="1.1" id="Capa_1" xmlns="http://www.w3.org/2000/svg" xmlns:xlink="http://www.w3.org/1999/xlink" x="0px" y="0px"
	 viewBox="0 0 98.042 98.043" style="enable-background:new 0 0 98.042 98.043;"
	 xml:space="preserve" fill="#5FA2DD">
		<path d="M52.069,23.964c-0.009-0.002-0.019-0.002-0.027-0.004l-2.512,2.637l-2.59-2.607c-3.696,1.29-18.068,9.963-20.106,33.03
			c-0.304,2.208,1.238,4.243,3.447,4.549c0.188,0.026,0.374,0.039,0.558,0.039c1.984,0,3.714-1.463,3.995-3.481
			c0.589-4.239,1.982-10.024,4.051-15.015v5.223l-6.311,28.002c0,0,0.696,2.287,7.146,3.484v13.731c0,2.479,2.011,4.491,4.491,4.491
			s4.492-2.013,4.491-4.491V80.531c0.092,0,0.178,0.003,0.271,0.003c0.126,0,0.243-0.003,0.367-0.004v13.021
			c0,2.479,2.01,4.491,4.49,4.491c0.001,0,0.001,0,0.001,0c2.48,0,4.491-2.012,4.491-4.491V79.809c6.436-1.2,7.219-3.47,7.219-3.47
			l-4.593-24.71c0,0,0.643-0.024,0.727-0.024c3.532,0,7.844-0.84,9.287-4.917C73.333,39.994,60.429,25.983,52.069,23.964z
			 M57.397,43.229c-0.666-0.133-1.431-0.309-2.343-0.551c-2.157-0.577-4.368,0.707-4.942,2.861
			c-0.574,2.155,0.707,4.366,2.862,4.941c1.671,0.444,3.109,0.75,4.423,0.938v6.805c0,0.649-0.527,1.177-1.177,1.177H42.838
			c-0.649,0-1.175-0.526-1.175-1.177v-19.85c0-0.649,0.526-1.177,1.175-1.177h2.979v-0.515c0-0.649,0.526-1.177,1.176-1.177h5.073
			c0.649,0,1.177,0.527,1.177,1.177v0.515h2.978c0.648,0,1.177,0.527,1.177,1.177L57.397,43.229L57.397,43.229z M60.174,43.447
			v-3.786c1.283,1.434,2.301,2.786,2.787,3.788C62.379,43.517,61.484,43.548,60.174,43.447z"/>
		<path d="M39.914,13.758c0,5.294,4.292,9.585,9.586,9.585c5.293,0,9.584-4.292,9.584-9.585c0-2.942-1.329-5.572-3.415-7.33
			l1.45-4.682c-8.483-3.928-15.239,0-15.239,0l1.45,4.682C41.242,8.187,39.914,10.817,39.914,13.758z"/>
</svg>
