<?xml version="1.0" encoding="iso-8859-1"?>
<svg version="1.1" id="Capa_1" xmlns="http://www.w3.org/2000/svg" xmlns:xlink="http://www.w3.org/1999/xlink" x="0px" y="0px"
	 viewBox="0 0 502.613 502.613" style="enable-background:new 0 0 502.613 502.613;" xml:space="preserve" fill="#5FA2DD">
	<path d="M438.058,168.007c0-141.677-113.7-174.766-193.296-166.936
		C165.231,8.814,95.946,50.23,95.946,120.033c0,69.889-4.573,93.919-4.573,93.919l14.452,19.565c0,0-44.954,74.333-41.028,84.04
		c3.861,9.685,40.704,16.437,40.704,16.437s2.998,4.94,0,52.676c-3.257,54.1,36.109,55.976,64.993,51.921
		c13.935-1.941,23.879-4.185,33.392-6.687l8.154,70.709h197.286l-29.293-150.262C391.66,303.515,438.058,275.58,438.058,168.007z
		 M219.999,226.723l67.279-78.82h-141.44v-0.022L305.873,44.773l-64.95,74.139H378.89L219.999,226.723z"/>
</svg>
