<?xml version='1.0' encoding='iso-8859-1'?>
<!DOCTYPE svg PUBLIC '-//W3C//DTD SVG 1.1//EN' 'http://www.w3.org/Graphics/SVG/1.1/DTD/svg11.dtd'>
<svg version="1.1" xmlns="http://www.w3.org/2000/svg" viewBox="0 0 312.089 312.089" xmlns:xlink="http://www.w3.org/1999/xlink" fill="#5FA2DD">
  <g>
    <path d="m311.708,284.076l-25.7-112.273v-85.067c0-9.665-7.835-17.501-17.501-17.501h-31.209c-9.665,0-17.501,7.835-17.501,17.501v10.06l2.062,.691 38.056-16.356-37.525,29.189-32.159-10.771v-11.349c7.908-3.245 13.5-11.028 13.5-20.126v-13.491c0-2.507-2.033-4.54-4.54-4.54h-34.42c-0.394,0-0.769,0.066-1.134,0.16l1.48-7.237c0.502-2.457-1.082-4.855-3.539-5.357l-33.722-6.895c-2.457-0.502-4.855,1.082-5.357,3.539l-2.702,13.217c-1.783,8.718 1.924,17.28 8.748,22.113l-2.992,14.632c-0.359,0.263-0.708,0.545-1.045,0.852l-19.453,17.742-12.303-23.055c-3.171-7.277-9.319-10.52-16.044-10.52h-31.209c-9.665,0-17.501,7.835-17.501,17.501v89.619l-1.871,44.693-24.992,60.661c-3.156,7.659 0.496,16.427 8.155,19.583 7.656,3.155 16.426-0.493 19.583-8.155l26-63.105c0.666-1.617 1.044-3.339 1.118-5.087l2-47.791c0.009-0.211-0.005-0.418-0.005-0.627h5.08l15.574,42.464-13.834,65.324c-1.717,8.104 3.462,16.065 11.566,17.782 8.109,1.715 16.067-3.465 17.782-11.567l14.728-69.546c0.584-2.758 0.379-5.625-0.592-8.272l-12.747-34.755c-13.455-3.458-21.829-5.611-34.639-8.903-10.774-2.769-16.999-12.239-17.641-18.37l-5.322-50.83 17.256,49.581c1.367,3.926 4.611,6.948 8.694,7.998l48.369,12.432c6.68,1.717 13.505-2.33 15.218-8.995 1.719-6.686-2.308-13.499-8.995-15.218l-41.878-10.764-15.625-44.9 23.049,34.417c5.82,1.496-6.93-1.781 26.873,6.907l30.452-27.774c4.976-4.539 5.43-12.166 1.13-17.273l2.672-13.067c6.376-1.211 11.955-5.245 15.075-11.008v5.885c0,8.872 5.313,16.53 13,19.912v8.686c-3.725,1.327-6.478,4.26-7.663,7.799-1.737,5.185 0.117,10.707 4.215,13.869 0.807,0.623 1.701,1.154 2.672,1.573 0.324,0.14 0.656,0.267 0.996,0.381l47.355,15.861c3.977,1.332 8.401,0.537 11.645-1.986l41.437-32.233-32.099,39.77c-3.22,3.989-12.073,8.628-21.992,6.566v27.766l-9.708,35.561c-0.535,1.956-0.666,4.001-0.388,6.011l9.966,71.875c1.14,8.222 8.739,13.94 16.918,12.797 8.206-1.138 13.936-8.712 12.798-16.918l-9.543-68.829 10.921-40.007h5.552l26.151,114.243c1.85,8.083 9.902,13.122 17.969,11.275 8.075-1.85 13.123-9.895 11.275-17.97z"/>
    <circle cx="252.766" cy="35.571" r="25.907"/>
    <circle cx="61.239" cy="35.57" r="25.907"/>
  </g>
</svg>
