<?xml version="1.0" encoding="iso-8859-1"?>
<!-- Generator: Adobe Illustrator 19.0.0, SVG Export Plug-In . SVG Version: 6.00 Build 0)  -->
<svg version="1.1" id="Layer_1" xmlns="http://www.w3.org/2000/svg" xmlns:xlink="http://www.w3.org/1999/xlink" x="0px" y="0px"
	 viewBox="0 0 511.999 511.999"  xml:space="preserve" fill="#5FA2DD">
<g>
	<g>
		<path d="M124.163,95.229c-34.818,0-63.146,28.326-63.146,63.146c0,34.87,28.418,63.146,63.146,63.146
			c34.701,0,63.146-28.25,63.146-63.146C187.309,123.555,158.982,95.229,124.163,95.229z M124.163,177.757
			c-10.705,0-19.383-8.678-19.383-19.383s8.678-19.383,19.383-19.383s19.383,8.678,19.383,19.383
			C143.546,169.079,134.868,177.757,124.163,177.757z"/>
	</g>
</g>
<g>
	<g>
		<path d="M124.163,34.211C55.699,34.211,0,89.91,0,158.374c0,27.743,9.148,53.388,24.583,74.082v201.561
			c0,24.135,19.635,43.77,43.771,43.77h111.621c24.135,0,43.77-19.635,43.77-43.77V232.457
			c15.436-20.694,24.583-46.34,24.583-74.083C248.328,89.91,192.628,34.211,124.163,34.211z M140.893,375.112
			c0,9.239-7.49,16.729-16.729,16.729s-16.729-7.49-16.729-16.729v-59.79c0-9.239,7.49-16.729,16.729-16.729
			s16.729,7.49,16.729,16.729V375.112z M202.399,214.976c-17.789,24.521-46.46,40.003-78.236,40.003
			c-53.295,0-96.604-43.388-96.604-96.604c0-53.269,43.336-96.604,96.604-96.604c53.269,0,96.604,43.336,96.604,96.604
			C220.768,179.499,213.947,199.058,202.399,214.976z"/>
	</g>
</g>
<g>
	<g>
		<path d="M495.271,221.52H261.87c-9.239,0-16.729,7.49-16.729,16.729v170.96c0,9.239,7.49,16.729,16.729,16.729h233.4
			c9.239,0,16.729-7.49,16.729-16.729V238.25C512,229.01,504.51,221.52,495.271,221.52z M436.917,282.538H295.852
			c-9.239,0-16.729-7.49-16.729-16.729c0-9.193,7.479-16.729,16.729-16.729h141.066c9.24,0,16.729,7.527,16.729,16.729
			C453.647,275.048,446.156,282.538,436.917,282.538z"/>
	</g>
</g>
<g>
</g>
<g>
</g>
<g>
</g>
<g>
</g>
<g>
</g>
<g>
</g>
<g>
</g>
<g>
</g>
<g>
</g>
<g>
</g>
<g>
</g>
<g>
</g>
<g>
</g>
<g>
</g>
<g>
</g>
</svg>
