<?xml version="1.0" encoding="iso-8859-1"?>
<!-- Generator: Adobe Illustrator 18.0.0, SVG Export Plug-In . SVG Version: 6.00 Build 0)  -->
<!DOCTYPE svg PUBLIC "-//W3C//DTD SVG 1.1//EN" "http://www.w3.org/Graphics/SVG/1.1/DTD/svg11.dtd">
<svg version="1.1" id="Capa_1" xmlns="http://www.w3.org/2000/svg" xmlns:xlink="http://www.w3.org/1999/xlink" x="0px" y="0px"
	 viewBox="0 0 60 60" style="enable-background:new 0 0 60 60;" xml:space="preserve" fill="#5FA2DD">
<g>
	<path d="M59.44,52.778c-1.143-1.417-3.208-1.885-4.859-1.085l-1.827,0.886l-3.159-6.028c2.788-2.502,2.002-9.265,0.019-16.551
		h-19.77c5.303,8.452,12.164,17.538,17.154,17.538c0.278,0,0.546-0.036,0.809-0.089l3.146,6.003l-1.771,0.859
		c-1.687,0.817-2.573,2.662-2.155,4.488c0.162,0.707,0.788,1.2,1.523,1.2c0.236,0,0.473-0.054,0.685-0.157l9.656-4.685
		c0.434-0.21,0.743-0.601,0.849-1.072C59.845,53.622,59.735,53.146,59.44,52.778z M38.611,34.277
		c-0.745,0.361-1.643,0.05-2.004-0.695c-0.362-0.745-0.05-1.643,0.695-2.004s1.643-0.05,2.004,0.695
		C39.668,33.018,39.356,33.915,38.611,34.277z M43.465,39.702c-0.745,0.361-1.643,0.05-2.004-0.695
		c-0.362-0.745-0.05-1.643,0.695-2.004c0.745-0.361,1.643-0.05,2.004,0.695S44.211,39.341,43.465,39.702z M45.319,34.357
		c-0.745,0.362-1.643,0.05-2.004-0.695s-0.05-1.643,0.695-2.004c0.745-0.362,1.643-0.05,2.004,0.695
		C46.375,33.099,46.064,33.996,45.319,34.357z"/>
	<path d="M22.779,6c0.552,0,1-0.447,1-1V1c0-0.553-0.448-1-1-1s-1,0.447-1,1v4C21.779,5.553,22.227,6,22.779,6z"/>
	<path d="M26.779,7c0.256,0,0.512-0.098,0.707-0.293l3-3c0.391-0.391,0.391-1.023,0-1.414s-1.023-0.391-1.414,0l-3,3
		c-0.391,0.391-0.391,1.023,0,1.414C26.267,6.902,26.523,7,26.779,7z"/>
	<path d="M27.779,9c0,0.553,0.448,1,1,1h3c0.552,0,1-0.447,1-1s-0.448-1-1-1h-3C28.227,8,27.779,8.447,27.779,9z"/>
	<path d="M18.072,6.707C18.267,6.902,18.523,7,18.779,7s0.512-0.098,0.707-0.293c0.391-0.391,0.391-1.023,0-1.414l-3-3
		c-0.391-0.391-1.023-0.391-1.414,0s-0.391,1.023,0,1.414L18.072,6.707z"/>
	<path d="M20.105,26H1.453c1.21,9.952,3.603,20.548,8.326,21.863V55h-2c-1.527,0-2.942,0.889-3.605,2.265
		c-0.288,0.597-0.25,1.288,0.103,1.848C4.625,59.668,5.225,60,5.881,60h9.796c0.656,0,1.256-0.332,1.604-0.888
		c0.352-0.56,0.39-1.251,0.103-1.848C16.721,55.889,15.306,55,13.779,55h-2v-7.137C16.502,46.548,18.895,35.952,20.105,26z
		 M13.279,32c0.828,0,1.5,0.672,1.5,1.5s-0.672,1.5-1.5,1.5s-1.5-0.672-1.5-1.5S12.45,32,13.279,32z M7.279,32
		c-0.828,0-1.5-0.672-1.5-1.5S6.45,29,7.279,29s1.5,0.672,1.5,1.5S8.107,32,7.279,32z M7.779,37.5c0-0.828,0.672-1.5,1.5-1.5
		s1.5,0.672,1.5,1.5s-0.672,1.5-1.5,1.5S7.779,38.328,7.779,37.5z"/>
	<path d="M0.246,9.024C0.306,11.438,0.518,17.425,1.225,24h19.108c0.707-6.575,0.919-12.562,0.979-14.976L21.337,8H0.221
		L0.246,9.024z"/>
	<path d="M41.211,7.48l-0.424-0.933l-19,9.215l0.47,0.91c0.952,1.846,3.323,6.333,6.356,11.327h20.435
		C46.477,19.335,42.557,10.438,41.211,7.48z"/>
</g>
<g>
</g>
<g>
</g>
<g>
</g>
<g>
</g>
<g>
</g>
<g>
</g>
<g>
</g>
<g>
</g>
<g>
</g>
<g>
</g>
<g>
</g>
<g>
</g>
<g>
</g>
<g>
</g>
<g>
</g>
</svg>
