<?xml version="1.0" encoding="iso-8859-1"?>
<!-- Generator: Adobe Illustrator 19.0.0, SVG Export Plug-In . SVG Version: 6.00 Build 0)  -->
<svg version="1.1" id="Layer_1" xmlns="http://www.w3.org/2000/svg" xmlns:xlink="http://www.w3.org/1999/xlink" x="0px" y="0px"
	 viewBox="0 0 512 512"  xml:space="preserve" fill="#5FA2DD">
<g>
	<g>
		<path d="M506.541,61.694c-0.839-0.766-8.146-7.338-20.077-15.709V25.399c0-9.234-7.486-16.72-16.72-16.72
			s-16.72,7.486-16.72,16.72v0.63c-29.613-14.707-62.629-23.39-95.328-18.466c-41.634,6.27-78.113,22.271-101.695,44.038
			c-23.582-21.766-60.062-37.768-101.695-44.038c-6.107-0.92-12.424-1.385-18.772-1.385C67.162,6.178,7.945,59.427,5.458,61.694
			c-5.85,5.331-7.161,14.034-3.14,20.851c2.022,3.43,50.412,84.138,126.303,95.566c32.84,4.946,53.793,1.63,60.438,1.63
			c15.094,0,29.859,6.108,40.51,16.759l14.608,14.608c6.528,6.529,17.115,6.531,23.646,0l25.302-25.301
			c5.807-5.807,14.354-8.612,22.506-7.348c22.312,3.44,45.619,2.984,67.748-0.349c26.973-4.062,50.467-16.878,69.645-31.863v342.854
			c0,9.234,7.486,16.72,16.72,16.72s16.72-7.486,16.72-16.72V114.07c14.274-16.582,22.414-30.162,23.217-31.526
			C513.702,75.727,512.391,67.025,506.541,61.694z M223.593,106.329c-1.633,18.622-31.755,31.193-67.28,28.079
			c-35.526-3.114-61.368-39.357-61.368-39.357s31.755-31.193,67.281-28.079C197.751,70.087,225.225,87.707,223.593,106.329z
			 M355.687,134.408c-35.526,3.114-65.647-9.457-67.28-28.079s25.844-36.242,61.368-39.357
			c35.525-3.114,67.281,28.079,67.281,28.079S391.213,131.293,355.687,134.408z"/>
	</g>
</g>
<g>
</g>
<g>
</g>
<g>
</g>
<g>
</g>
<g>
</g>
<g>
</g>
<g>
</g>
<g>
</g>
<g>
</g>
<g>
</g>
<g>
</g>
<g>
</g>
<g>
</g>
<g>
</g>
<g>
</g>
</svg>
