<?xml version="1.0" encoding="iso-8859-1"?>
<!-- Generator: Adobe Illustrator 19.0.0, SVG Export Plug-In . SVG Version: 6.00 Build 0)  -->
<svg version="1.1" id="Layer_1" xmlns="http://www.w3.org/2000/svg" xmlns:xlink="http://www.w3.org/1999/xlink" x="0px" y="0px"
	 viewBox="0 0 460.38 460.38" xml:space="preserve" fill="#5FA2DD">
<g id="XMLID_9_">
	<g>
		<g>
			<path d="M218.067,228.845c0.782,4.771,3.521,8.999,7.555,11.663l71.624,47.306c5.633,3.72,12.085,2.254,18.155-1.433
				c14.482-8.797,19.274-12.036,56.867-36.877l60.9,9.033c7.621,1.135,14.72-4.132,15.85-11.756
				c1.131-7.623-4.133-14.72-11.756-15.85l-66.179-9.816c-3.401-0.507-6.866,0.263-9.734,2.157l-28.994,19.135l-4.807-3.747
				c-20.298,14.596-14.275,10.266-23.103,16.614c-5.557,3.996-12.877,3.774-18.144-0.012l-37.676-27.166l41.953,15.831
				c3.633,1.371,7.725,0.841,10.895-1.439l37.72-27.124c5.214-3.75,6.401-11.016,2.652-16.23c-3.749-5.214-11.016-6.401-16.23-2.652
				l-32.658,23.484l-36.119-13.63l30.233,2.941l1.45-1.043l-24.545-19.135c-7.552-5.887-18.447-4.538-24.335,3.014l-18.139,23.268
				C218.531,219.193,217.285,224.074,218.067,228.845z"/>
			<path d="M175.986,185.697h27.706c7.23,0,13.457,4.325,16.266,10.518c8.618-11.175,6.601-27.226-4.543-35.913
				c-3.686-2.873-7.91-4.575-12.228-5.174c-1.414,7.407-6.658,13.419-13.741,15.822
				C186.988,177.612,182.085,182.883,175.986,185.697z"/>
			<path d="M450.112,270.253l-65.057-9.892c-2.896-0.439-5.854,0.187-8.323,1.764l-69.787,44.601l-101.308-66.629
				c-6.315,5.893-14.15,10.168-22.849,12.172v-14.535c14.366-4.717,24.743-18.229,24.743-34.173c0-2.121-1.719-3.84-3.84-3.84
				h-68.057c-2.12,0-3.84,1.719-3.84,3.84c0,20.828,0,165.791,0,189.608c0,2.12,1.719,3.84,3.84,3.84h43.314
				c2.121,0,3.84-1.719,3.84-3.84V253.992l117.423,77.228c3.982,2.619,9.129,2.652,13.146,0.086l7.121-4.551l21.787,46.089h-35.494
				c-6.673,0-12.083,5.41-12.083,12.083c0,6.673,5.41,12.083,12.083,12.083h136.112c6.673,0,12.082-5.41,12.082-12.083
				c0-6.673-5.41-12.083-12.082-12.083h-36.078l-34.506-79.207l13.617-8.703l60.564,9.209c6.589,0.999,12.758-3.532,13.761-10.129
				C461.244,277.418,456.709,271.256,450.112,270.253z"/>
			<path d="M151.499,165.764l-7.926,4.615c-0.059,0.417-0.091,0.838-0.091,1.262c0,5.002,4.07,9.072,9.072,9.072
				c2.927,0,5.693-1.437,7.399-3.844c1.329-1.874,3.484-3.017,5.79-2.957c0.067,0,0.146,0.003,0.226,0.006
				c5.314-0.08,9.903-4.32,10.945-10.142c0.559-3.12,3.141-5.478,6.299-5.751c3.555-0.307,6.34-3.345,6.34-6.916
				c0-3.833-3.118-6.952-6.951-6.952c-1.913,0-3.745-0.556-5.068-1.937c-1.3-1.358-2.002-2.962-1.947-4.831
				c-0.163-1.27-1.778-8.327-17.475-8.349c0.815,0.996,1.564,2.066,2.233,3.214C167.157,143.95,163.196,158.953,151.499,165.764z"/>
			<circle cx="79.287" cy="90.524" r="27.154"/>
			<path d="M85.444,253.412l4.246-51.657l-1.411,0.821c-7.482,4.357-16.908,2.376-22.063-4.294L40.697,165.34l32.245,23.848
				c4.236,3.133,9.932,3.446,14.487,0.794l58.379-33.993c6.298-3.667,8.431-11.746,4.764-18.044
				c-3.668-6.299-11.746-8.432-18.044-4.764l-50.874,29.623L56.391,144.12l21.132,8l14.847-8.645
				c-2.714-6.767-9.046-11.792-16.806-12.43l-35.319-2.903c-10.938-0.899-20.534,7.239-21.433,18.177l-6.369,101.78l8.416,54.871
				L0.567,376.983c-2.312,8.434,2.651,17.147,11.085,19.459c8.44,2.312,17.147-2.655,19.459-11.085l21.184-77.267
				c0.588-2.145,0.718-4.389,0.38-6.588l-7.782-50.737l6.028,0.495l19.115,52.115l-15.78,74.513
				c-1.812,8.556,3.656,16.961,12.211,18.773c8.556,1.811,16.961-3.656,18.773-12.211l16.723-78.97
				c0.616-2.912,0.4-5.939-0.625-8.734L85.444,253.412z"/>
		</g>
	</g>
</g>
<g>
</g>
<g>
</g>
<g>
</g>
<g>
</g>
<g>
</g>
<g>
</g>
<g>
</g>
<g>
</g>
<g>
</g>
<g>
</g>
<g>
</g>
<g>
</g>
<g>
</g>
<g>
</g>
<g>
</g>
</svg>
